<?xml version="1.0" encoding="UTF-8" standalone="no"?>
<!DOCTYPE svg PUBLIC "-//W3C//DTD SVG 1.1//EN" "http://www.w3.org/Graphics/SVG/1.1/DTD/svg11.dtd">
<svg width="100%" height="100%" viewBox="0 0 132 114" version="1.1" xmlns="http://www.w3.org/2000/svg" xmlns:xlink="http://www.w3.org/1999/xlink" xml:space="preserve" xmlns:serif="http://www.serif.com/" style="fill-rule:evenodd;clip-rule:evenodd;stroke-linejoin:round;stroke-miterlimit:1.41421;">
    <g transform="matrix(1,0,0,1,-442.81,-438.317)">
        <g transform="matrix(1,0,0,1,0,73.4431)">
            <g transform="matrix(0.412305,0,0,0.374233,310.165,283.49)">
                <path d="M472.872,222.883C474.231,219.605 477.431,217.468 480.979,217.468C484.528,217.468 487.727,219.605 489.087,222.883L528.806,318.649L632.159,326.831C635.696,327.111 638.717,329.493 639.813,332.868C640.91,336.243 639.867,339.946 637.169,342.252L558.364,409.621L582.521,510.443C583.347,513.894 582.015,517.503 579.144,519.589C576.273,521.675 572.429,521.827 569.403,519.974L480.979,465.844L392.556,519.974C389.529,521.827 385.685,521.675 382.814,519.589C379.944,517.503 378.611,513.894 379.438,510.443L403.594,409.621L324.789,342.252C322.092,339.946 321.049,336.243 322.145,332.868C323.242,329.493 326.262,327.111 329.8,326.831L433.153,318.649L472.872,222.883Z" style="fill:rgb(255,200,100);"/>
                <clipPath id="_clip1">
                    <path d="M472.872,222.883C474.231,219.605 477.431,217.468 480.979,217.468C484.528,217.468 487.727,219.605 489.087,222.883L528.806,318.649L632.159,326.831C635.696,327.111 638.717,329.493 639.813,332.868C640.91,336.243 639.867,339.946 637.169,342.252L558.364,409.621L582.521,510.443C583.347,513.894 582.015,517.503 579.144,519.589C576.273,521.675 572.429,521.827 569.403,519.974L480.979,465.844L392.556,519.974C389.529,521.827 385.685,521.675 382.814,519.589C379.944,517.503 378.611,513.894 379.438,510.443L403.594,409.621L324.789,342.252C322.092,339.946 321.049,336.243 322.145,332.868C323.242,329.493 326.262,327.111 329.8,326.831L433.153,318.649L472.872,222.883Z"/>
                </clipPath>
                <g clip-path="url(#_clip1)">
                    <g transform="matrix(0.839161,0,0,0.604371,77.3601,144.857)">
                        <rect x="480.979" y="120.144" width="189.79" height="502.666" style="fill:rgb(255,220,105);"/>
                    </g>
                </g>
            </g>
        </g>
    </g>
</svg>
